<mxfile host="app.diagrams.net" agent="Mozilla/5.0 (Macintosh; Intel Mac OS X 10_15_7) AppleWebKit/605.1.15 (KHTML, like Gecko) Version/18.3.1 Safari/605.1.15" version="28.0.7">
  <diagram name="Page-1" id="FLdIJgmZ9KZgqJySUTEz">
    <mxGraphModel dx="2253" dy="832" grid="1" gridSize="10" guides="1" tooltips="1" connect="1" arrows="1" fold="1" page="1" pageScale="1" pageWidth="827" pageHeight="1169" math="1" shadow="0">
      <root>
        <mxCell id="0" />
        <mxCell id="1" parent="0" />
        <mxCell id="sjUXfEYSbSPWx-hQYln_-2" value="" style="rounded=0;whiteSpace=wrap;html=1;" vertex="1" parent="1">
          <mxGeometry x="50" y="670" width="230" height="240" as="geometry" />
        </mxCell>
        <mxCell id="sjUXfEYSbSPWx-hQYln_-3" value="" style="rounded=0;whiteSpace=wrap;html=1;" vertex="1" parent="1">
          <mxGeometry x="500" y="670" width="120" height="240" as="geometry" />
        </mxCell>
        <mxCell id="sjUXfEYSbSPWx-hQYln_-5" value="&lt;font style=&quot;font-size: 23px;&quot;&gt;$$(pk,sk) \gets \mathsf{Gen}(1^\lambda)$$&lt;/font&gt;" style="text;html=1;align=center;verticalAlign=middle;resizable=0;points=[];autosize=1;strokeColor=none;fillColor=none;" vertex="1" parent="1">
          <mxGeometry x="-62" y="680" width="460" height="40" as="geometry" />
        </mxCell>
        <mxCell id="sjUXfEYSbSPWx-hQYln_-6" value="&lt;b&gt;&lt;font face=&quot;Times New Roman&quot; style=&quot;font-size: 23px;&quot;&gt;Oracle kÃ½&lt;/font&gt;&lt;/b&gt;" style="ellipse;whiteSpace=wrap;html=1;aspect=fixed;fillColor=#e1d5e7;strokeColor=#9673a6;" vertex="1" parent="1">
          <mxGeometry x="110" y="760" width="110" height="110" as="geometry" />
        </mxCell>
        <mxCell id="sjUXfEYSbSPWx-hQYln_-7" value="&lt;font style=&quot;font-size: 23px;&quot; face=&quot;Times New Roman&quot;&gt;$$pk$$&lt;/font&gt;" style="text;html=1;align=center;verticalAlign=middle;resizable=0;points=[];autosize=1;strokeColor=none;fillColor=none;" vertex="1" parent="1">
          <mxGeometry x="346.5" y="680" width="90" height="40" as="geometry" />
        </mxCell>
        <mxCell id="sjUXfEYSbSPWx-hQYln_-8" value="&lt;font style=&quot;font-size: 23px;&quot; face=&quot;Times New Roman&quot;&gt;$$m_i$$&lt;/font&gt;" style="text;html=1;align=center;verticalAlign=middle;resizable=0;points=[];autosize=1;strokeColor=none;fillColor=none;" vertex="1" parent="1">
          <mxGeometry x="336.5" y="750" width="110" height="40" as="geometry" />
        </mxCell>
        <mxCell id="sjUXfEYSbSPWx-hQYln_-9" value="" style="endArrow=classic;html=1;rounded=0;entryX=0.955;entryY=0.264;entryDx=0;entryDy=0;entryPerimeter=0;" edge="1" parent="1" target="sjUXfEYSbSPWx-hQYln_-6">
          <mxGeometry width="50" height="50" relative="1" as="geometry">
            <mxPoint x="495" y="789.5" as="sourcePoint" />
            <mxPoint x="320" y="789.5" as="targetPoint" />
          </mxGeometry>
        </mxCell>
        <mxCell id="sjUXfEYSbSPWx-hQYln_-12" value="&lt;font style=&quot;font-size: 23px;&quot; face=&quot;Times New Roman&quot;&gt;$$(m^*,\sigma^*)$$&lt;/font&gt;" style="text;html=1;align=center;verticalAlign=middle;resizable=0;points=[];autosize=1;strokeColor=none;fillColor=none;" vertex="1" parent="1">
          <mxGeometry x="290" y="870" width="210" height="40" as="geometry" />
        </mxCell>
        <mxCell id="sjUXfEYSbSPWx-hQYln_-13" value="" style="endArrow=classic;html=1;rounded=0;entryX=1.009;entryY=0.971;entryDx=0;entryDy=0;entryPerimeter=0;" edge="1" parent="1" target="sjUXfEYSbSPWx-hQYln_-2">
          <mxGeometry width="50" height="50" relative="1" as="geometry">
            <mxPoint x="490" y="900" as="sourcePoint" />
            <mxPoint x="290" y="900" as="targetPoint" />
          </mxGeometry>
        </mxCell>
        <mxCell id="sjUXfEYSbSPWx-hQYln_-14" value="" style="endArrow=classic;html=1;rounded=0;entryX=-0.033;entryY=0.222;entryDx=0;entryDy=0;entryPerimeter=0;exitX=0.752;exitY=1.1;exitDx=0;exitDy=0;exitPerimeter=0;" edge="1" parent="1" source="sjUXfEYSbSPWx-hQYln_-5" target="sjUXfEYSbSPWx-hQYln_-3">
          <mxGeometry width="50" height="50" relative="1" as="geometry">
            <mxPoint x="310" y="720" as="sourcePoint" />
            <mxPoint x="448" y="720" as="targetPoint" />
          </mxGeometry>
        </mxCell>
        <mxCell id="sjUXfEYSbSPWx-hQYln_-17" value="&lt;span style=&quot;font-size: 23px;&quot;&gt;$$\sigma_i \gets \mathsf{Sign}(sk,m_i)$$&lt;/span&gt;" style="text;html=1;align=center;verticalAlign=middle;resizable=0;points=[];autosize=1;strokeColor=none;fillColor=none;" vertex="1" parent="1">
          <mxGeometry x="171.5" y="800" width="440" height="40" as="geometry" />
        </mxCell>
        <mxCell id="sjUXfEYSbSPWx-hQYln_-18" value="" style="endArrow=classic;html=1;rounded=0;entryX=0.738;entryY=1;entryDx=0;entryDy=0;entryPerimeter=0;exitX=0.752;exitY=1.1;exitDx=0;exitDy=0;exitPerimeter=0;" edge="1" parent="1" target="sjUXfEYSbSPWx-hQYln_-17">
          <mxGeometry width="50" height="50" relative="1" as="geometry">
            <mxPoint x="220" y="841" as="sourcePoint" />
            <mxPoint x="432" y="840" as="targetPoint" />
          </mxGeometry>
        </mxCell>
        <mxCell id="sjUXfEYSbSPWx-hQYln_-19" value="&lt;font style=&quot;font-size: 23px;&quot; face=&quot;Times New Roman&quot;&gt;&lt;b&gt;Challenger&lt;/b&gt;&lt;/font&gt;" style="text;html=1;align=center;verticalAlign=middle;resizable=0;points=[];autosize=1;strokeColor=none;fillColor=none;" vertex="1" parent="1">
          <mxGeometry x="95" y="630" width="130" height="40" as="geometry" />
        </mxCell>
        <mxCell id="sjUXfEYSbSPWx-hQYln_-20" value="&lt;font style=&quot;font-size: 23px;&quot; face=&quot;Times New Roman&quot;&gt;&lt;b&gt;Adversary&lt;/b&gt;&lt;/font&gt;" style="text;html=1;align=center;verticalAlign=middle;resizable=0;points=[];autosize=1;strokeColor=none;fillColor=none;" vertex="1" parent="1">
          <mxGeometry x="495" y="630" width="130" height="40" as="geometry" />
        </mxCell>
      </root>
    </mxGraphModel>
  </diagram>
</mxfile>
